<svg id="Capa_1" data-name="Capa 1" xmlns="http://www.w3.org/2000/svg" viewBox="0 0 153.45 20.5"><defs><style>.cls-1{font-size:16.69px;font-family:DoctorGlitch, Doctor Glitch;}.cls-1,.cls-2{fill:#fff;stroke:#000;stroke-miterlimit:10;stroke-width:0.5px;}</style></defs><title>zaparunning-logo</title><text x="-2.99" y="-10.52"/><text x="-2.99" y="-10.52"/><text class="cls-1" transform="translate(0.5 14.44)">zaparunning</text><path class="cls-2" d="M155.82,24.67h-3.51a2.05,2.05,0,0,1-1.38-.56l-5.51-5.5,3-3.47h0a3.8,3.8,0,0,0,3.46,3.47h.44c-.05,1.95.69,3.38,2.6,4a.86.86,0,0,0,.34.09h0a1,1,0,0,1,.74,1.21Z" transform="translate(-2.99 -10.52)"/><path class="cls-2" d="M144.56,19.47l5.93,5.94a2,2,0,0,0,1.39.56h3.94" transform="translate(-2.99 -10.52)"/><circle class="cls-2" cx="145.69" cy="8.73" r="0.65"/><line class="cls-2" x1="148.61" y1="10.25" x2="148.61" y2="10.25"/><line class="cls-2" x1="148.5" y1="11.55" x2="150.89" y2="11.55"/><path class="cls-2" d="M156.26,13l-3.17,3.17a2.86,2.86,0,0,0-.73,2.77h0" transform="translate(-2.99 -10.52)"/><path class="cls-2" d="M148.46,15.57h0a3.63,3.63,0,0,0,2-1.6l.61-1" transform="translate(-2.99 -10.52)"/></svg>